<?xml version="1.0" encoding="UTF-8" standalone="no"?>
<!-- Created with Inkscape (http://www.inkscape.org/) -->

<svg
   xmlns:dc="http://purl.org/dc/elements/1.1/"
   xmlns:cc="http://creativecommons.org/ns#"
   xmlns:rdf="http://www.w3.org/1999/02/22-rdf-syntax-ns#"
   xmlns:svg="http://www.w3.org/2000/svg"
   xmlns="http://www.w3.org/2000/svg"
   xmlns:sodipodi="http://sodipodi.sourceforge.net/DTD/sodipodi-0.dtd"
   xmlns:inkscape="http://www.inkscape.org/namespaces/inkscape"
   version="1.1"
   width="500"
   height="300"
   id="svg3351"
   inkscape:version="0.48.1 "
   sodipodi:docname="Track_and_Field_2.svg">
  <sodipodi:namedview
     pagecolor="#ffffff"
     bordercolor="#666666"
     borderopacity="1"
     objecttolerance="10"
     gridtolerance="10"
     guidetolerance="10"
     inkscape:pageopacity="0"
     inkscape:pageshadow="2"
     inkscape:window-width="1280"
     inkscape:window-height="738"
     id="namedview146"
     showgrid="false"
     inkscape:zoom="1.73"
     inkscape:cx="250"
     inkscape:cy="150"
     inkscape:window-x="-8"
     inkscape:window-y="-8"
     inkscape:window-maximized="1"
     inkscape:current-layer="svg3351" />
  <defs
     id="defs3353">
    <filter
       color-interpolation-filters="sRGB"
       id="filter4570">
      <feGaussianBlur
         id="feGaussianBlur4572"
         stdDeviation="2.9269952" />
    </filter>
    <filter
       color-interpolation-filters="sRGB"
       id="filter5191">
      <feGaussianBlur
         stdDeviation="4.3904927"
         id="feGaussianBlur5193" />
    </filter>
    <filter
       color-interpolation-filters="sRGB"
       id="filter5191-2">
      <feGaussianBlur
         stdDeviation="4.3904927"
         id="feGaussianBlur5193-2" />
    </filter>
    <filter
       x="-0.018993832"
       y="-0.34401038"
       width="1.0379877"
       height="1.6880207"
       color-interpolation-filters="sRGB"
       id="filter4572">
      <feGaussianBlur
         id="feGaussianBlur4574"
         stdDeviation="2.1693824" />
    </filter>
    <filter
       x="-0.018993832"
       y="-0.34401038"
       width="1.0379877"
       height="1.6880207"
       color-interpolation-filters="sRGB"
       id="filter4572-8">
      <feGaussianBlur
         id="feGaussianBlur4574-2"
         stdDeviation="2.1693824" />
    </filter>
    <filter
       x="-0.018993832"
       y="-0.34401038"
       width="1.0379877"
       height="1.6880207"
       color-interpolation-filters="sRGB"
       id="filter4572-3">
      <feGaussianBlur
         id="feGaussianBlur4574-6"
         stdDeviation="2.1693824" />
    </filter>
  </defs>
  <metadata
     id="metadata3356">
    <rdf:RDF>
      <cc:Work
         rdf:about="">
        <dc:format>image/svg+xml</dc:format>
        <dc:type
           rdf:resource="http://purl.org/dc/dcmitype/StillImage" />
        <dc:title />
      </cc:Work>
    </rdf:RDF>
  </metadata>
  <g
     id="g4374">
    <rect
       width="419.30472"
       height="30.007694"
       x="33.829632"
       y="267.64188"
       id="rect3591"
       style="fill:#ff6244;fill-opacity:1;fill-rule:nonzero;stroke:#3eb7d3;stroke-width:0.09345165;stroke-linecap:square;stroke-linejoin:round;stroke-miterlimit:4;stroke-opacity:1;stroke-dasharray:none;stroke-dashoffset:0;display:inline" />
    <path
       d="m 33.829637,267.85413 72.482943,0.32148"
       id="path2455"
       style="fill:none;stroke:#000000;stroke-width:0.70088726;stroke-linecap:butt;stroke-linejoin:miter;stroke-miterlimit:10;stroke-opacity:1;stroke-dasharray:none"
       inkscape:connector-curvature="0" />
    <path
       d="m 33.829637,271.7165 93.855813,0.14753"
       id="path2451"
       style="fill:none;stroke:#000000;stroke-width:0.70088726;stroke-linecap:butt;stroke-linejoin:miter;stroke-miterlimit:10;stroke-opacity:1;stroke-dasharray:none"
       inkscape:connector-curvature="0" />
    <path
       d="m 33.829637,275.41162 94.194403,0.13794"
       id="path2447"
       style="fill:none;stroke:#000000;stroke-width:0.70088726;stroke-linecap:butt;stroke-linejoin:miter;stroke-miterlimit:10;stroke-opacity:1;stroke-dasharray:none"
       inkscape:connector-curvature="0" />
    <path
       d="m 33.829637,279.16535 95.325223,0.003"
       id="path2443"
       style="fill:none;stroke:#000000;stroke-width:0.70088726;stroke-linecap:butt;stroke-linejoin:miter;stroke-miterlimit:10;stroke-opacity:1;stroke-dasharray:none"
       inkscape:connector-curvature="0" />
    <path
       d="m 33.829637,282.96956 96.067023,-0.13794"
       id="path2439"
       style="fill:none;stroke:#000000;stroke-width:0.70088726;stroke-linecap:butt;stroke-linejoin:miter;stroke-miterlimit:10;stroke-opacity:1;stroke-dasharray:none"
       inkscape:connector-curvature="0" />
    <path
       d="m 33.829637,286.51162 95.657493,0.13794"
       id="path2435"
       style="fill:none;stroke:#000000;stroke-width:0.70088726;stroke-linecap:butt;stroke-linejoin:miter;stroke-miterlimit:10;stroke-opacity:1;stroke-dasharray:none"
       inkscape:connector-curvature="0" />
    <path
       d="m 33.829637,290.24956 91.874173,-0.27589"
       id="path2431"
       style="fill:none;stroke:#000000;stroke-width:0.70088726;stroke-linecap:butt;stroke-linejoin:miter;stroke-miterlimit:10;stroke-opacity:1;stroke-dasharray:none"
       inkscape:connector-curvature="0" />
    <path
       d="m 33.836571,293.52585 96.786419,0.11671"
       id="path3392"
       style="fill:none;stroke:#000000;stroke-width:0.74105525;stroke-linecap:butt;stroke-linejoin:miter;stroke-miterlimit:4;stroke-opacity:1;stroke-dasharray:none;display:inline"
       inkscape:connector-curvature="0" />
    <path
       d="m 129.75625,2.3810929 240.48853,0 0,0 c 52.21776,0 98.86133,33.8270351 116.72096,84.6496501 l 0,0 c 7.05972,20.088977 10.67118,41.304537 10.67118,62.682517 0,21.37814 -3.61146,42.59255 -10.67118,62.68165 l 0,0 c -17.85963,50.82336 -64.5032,84.64991 -116.72096,84.64991 l -240.48853,0 0,0 c -52.218609,0 -98.862016,-33.82655 -116.72148,-84.64991 l 0,0 C 5.9750322,192.30581 2.3630809,171.0914 2.3630809,149.71326 c 0,-21.37798 3.6119513,-42.59354 10.6716891,-62.682517 l 0,0 C 30.894234,36.208128 77.537641,2.3810929 129.75625,2.3810929 z"
       id="path3382"
       style="fill:#ff6244;fill-opacity:1;stroke:#000000;stroke-width:0.72616053;stroke-linecap:butt;stroke-linejoin:miter;stroke-miterlimit:10;stroke-opacity:1;stroke-dasharray:none;display:inline"
       inkscape:connector-curvature="0" />
    <path
       d="m 133.52312,30.504078 234.48104,0 0,0 c 41.80157,0 79.14035,26.547542 93.43796,66.432926 l 0,0 c 6.01868,16.790656 9.09729,34.521646 9.09729,52.389196 0,17.86755 -3.07861,35.59854 -9.09729,52.38837 l 0,0 c -14.29761,39.88633 -51.63639,66.43344 -93.43796,66.43344 l -234.48104,0 0,0 c -41.801563,0 -79.14086,-26.54711 -93.437794,-66.43344 l 0,0 c -6.018642,-16.78983 -9.097795,-34.52082 -9.097795,-52.38837 0,-17.86755 3.079153,-35.59854 9.097795,-52.389196 l 0,0 C 54.38226,57.05162 91.721557,30.504078 133.52312,30.504078 z"
       id="path3527"
       style="fill:#a0c041;fill-opacity:1;stroke:#000000;stroke-width:0.70088732;stroke-linecap:butt;stroke-linejoin:miter;stroke-miterlimit:10;stroke-opacity:1;stroke-dasharray:none;display:inline"
       inkscape:connector-curvature="0" />
    <path
       d="M 58.042145,65.511383 58.298832,65.6138 C 50.453506,74.106527 47.724051,85.036858 47.339802,96.621398 L 43.992395,196.963 c -0.06736,2.04797 -0.006,4.09684 0.1871,6.13375 0.677005,7.1553 2.949638,14.04523 6.644867,20.14919 l -9.9e-5,-8.6e-4 c -1.795098,-2.96425 -3.436865,-6.02304 -4.917829,-9.16348 l -8.43e-4,1.2e-4 c -8.004135,-15.91679 -12.309895,-33.3729 -13.991807,-51.14939 -1.682012,-17.77752 -0.284315,-35.74774 4.12866,-53.09653 l 8.43e-4,-1e-4 C 40.261365,93.252935 46.622186,77.985185 58.192114,65.461756"
       id="path2423"
       style="fill:#ff6244;fill-opacity:1;stroke:#000000;stroke-width:0.29534897;stroke-linecap:butt;stroke-linejoin:miter;stroke-miterlimit:10;stroke-opacity:1;stroke-dasharray:none"
       inkscape:connector-curvature="0" />
    <path
       d="m 453.13439,290.1944 -42.77161,0"
       id="path2429"
       style="fill:none;stroke:#000000;stroke-width:0.71119148;stroke-linecap:butt;stroke-linejoin:miter;stroke-miterlimit:10;stroke-opacity:1;stroke-dasharray:none"
       inkscape:connector-curvature="0" />
    <path
       d="m 453.13439,286.33832 -33.94028,0.18773"
       id="path2433"
       style="fill:none;stroke:#000000;stroke-width:0.70088726;stroke-linecap:butt;stroke-linejoin:miter;stroke-miterlimit:10;stroke-opacity:1;stroke-dasharray:none"
       inkscape:connector-curvature="0" />
    <path
       d="m 453.13439,282.87566 -26.85744,0.0739"
       id="path2437"
       style="fill:none;stroke:#000000;stroke-width:0.70088726;stroke-linecap:butt;stroke-linejoin:miter;stroke-miterlimit:10;stroke-opacity:1;stroke-dasharray:none"
       inkscape:connector-curvature="0" />
    <path
       d="m 453.13439,279.23432 -19.98984,0.0291"
       id="path2441"
       style="fill:none;stroke:#000000;stroke-width:0.70088726;stroke-linecap:butt;stroke-linejoin:miter;stroke-miterlimit:10;stroke-opacity:1;stroke-dasharray:none"
       inkscape:connector-curvature="0" />
    <path
       d="m 453.13439,275.30298 -14.33661,0.33028"
       id="path2445"
       style="fill:none;stroke:#000000;stroke-width:0.70088726;stroke-linecap:butt;stroke-linejoin:miter;stroke-miterlimit:10;stroke-opacity:1;stroke-dasharray:none"
       inkscape:connector-curvature="0" />
    <path
       d="m 453.13439,271.7165 -9.33496,0.28547"
       id="path2449"
       style="fill:none;stroke:#000000;stroke-width:0.70088726;stroke-linecap:butt;stroke-linejoin:miter;stroke-miterlimit:10;stroke-opacity:1;stroke-dasharray:none"
       inkscape:connector-curvature="0" />
    <path
       d="m 453.13439,267.85404 -4.19875,9e-5"
       id="path2453"
       style="fill:none;stroke:#000000;stroke-width:0.70088726;stroke-linecap:butt;stroke-linejoin:miter;stroke-miterlimit:10;stroke-opacity:1;stroke-dasharray:none"
       inkscape:connector-curvature="0" />
    <path
       d="m 453.13439,267.49159 0,29.79552 -419.304753,0.0129 0,-29.79609"
       id="path2457"
       style="fill:none;stroke:#000000;stroke-width:0.70088726;stroke-linecap:butt;stroke-linejoin:miter;stroke-miterlimit:10;stroke-opacity:1;stroke-dasharray:none"
       inkscape:connector-curvature="0" />
    <path
       d="m 67.411042,279.21151 0.975597,0 m 0.975598,0 0.975599,0 m 0.975597,0 0.975598,0 m 0.975597,0 0.975585,0 m 0.975599,0 0.975598,0 m 0.975043,0 0.976706,0 m 0.975308,0 0.97532,0 m 0.975322,0 0.97532,0 m 0.976694,0 0.975334,0 m 0.975308,0 0.97532,0 m 0.97532,0 0.976694,0 m 0.975335,0 0.975316,0 m 0.975311,0 0.975324,0 m 0.976709,0 0.975297,0 m 0.975338,0 0.975324,0 m 0.975297,0 0.976709,0 m 0.975324,0 0.975324,0 m 0.975323,0 0.97531,0 m 0.9767,0 0.97532,0 m 0.97533,0 0.97531,0 m 0.97532,0 0.9767,0 m 0.97532,0 0.97532,0 m 0.97532,0 0.97669,0 m 0.97534,0 0.97531,0 m 0.97531,0 0.97532,0 m 0.9767,0 0.97532,0 m 0.97533,0 0.97531,0 m 0.97532,0 0.9767,0 m 0.97532,0 0.97533,0 m 0.97532,0 0.97531,0 m 0.97671,0 0.9753,0 m 0.97532,0 0.97534,0 m 0.97532,0 0.97669,0 m 0.97532,0 0.97531,0"
       id="path2469"
       style="fill:none;stroke:#000000;stroke-width:0.57698482;stroke-linecap:butt;stroke-linejoin:miter;stroke-miterlimit:10;stroke-opacity:1;stroke-dasharray:none"
       inkscape:connector-curvature="0" />
    <path
       d="m 61.878986,275.51961 0.921561,0 m 0.921548,0 0.921559,0 m 0.92156,0 0.921573,0 m 0.921547,0 0.92156,0 m 0.921561,0 0.921559,0 m 0.92156,0 0.921548,0 m 0.92156,0 0.92156,0 m 0.92156,0 0.921547,0 m 0.92156,0 0.921561,0 m 0.921559,0 0.921548,0 m 0.921173,0 0.922596,0 m 0.92131,0 0.921298,0 m 0.921285,0 0.921299,0 m 0.922607,0 0.921286,0 m 0.921311,0 0.921297,0 m 0.921286,0 0.922609,0 m 0.921297,0 0.921294,0 m 0.921301,0 0.921302,0 m 0.922596,0 0.921289,0 m 0.921301,0 0.921302,0 m 0.921301,0 0.922584,0 m 0.921299,0 0.9213,0 m 0.92131,0 0.92128,0 m 0.92261,0 0.92129,0 m 0.9213,0 0.92129,0 m 0.9213,0 0.9226,0 m 0.92131,0 0.92129,0 m 0.92129,0 0.92132,0 m 0.92258,0 0.92131,0 m 0.92129,0 0.92129,0 m 0.9213,0 0.92261,0 m 0.92129,0 0.9213,0 m 0.9213,0 0.92129,0 m 0.92261,0 0.92129,0 m 0.9213,0 0.9213,0 m 0.9213,0 0.92259,0 m 0.9213,0 0.9213,0 m 0.9213,0 0.92261,0 m 0.92128,0 0.9213,0"
       id="path2473"
       style="fill:none;stroke:#000000;stroke-width:0.56077772;stroke-linecap:butt;stroke-linejoin:miter;stroke-miterlimit:10;stroke-opacity:1;stroke-dasharray:none"
       inkscape:connector-curvature="0" />
    <path
       d="m 56.857903,271.87453 0.88948,0 m 0.88948,0 0.889481,0 m 0.889468,0 0.889481,0 m 0.889481,0 0.889479,0 m 0.889469,0 0.889481,0 m 0.889479,0 0.889481,0 m 0.889481,0 0.889468,0 m 0.889481,0 0.88948,0 m 0.88948,0 0.889481,0 m 0.889481,0 0.88948,0 m 0.88948,0 0.889469,0 m 0.88948,0 0.889481,0 m 0.889481,0 0.889479,0 m 0.889469,0 0.889481,0 m 0.888974,0 0.890493,0 m 0.889227,0 0.889215,0 m 0.889228,0 0.889239,0 m 0.89048,0 0.889228,0 m 0.889228,0 0.889215,0 m 0.889239,0 0.890468,0 m 0.889241,0 0.889221,0 m 0.88923,0 0.889219,0 m 0.890494,0 0.889218,0 m 0.889231,0 0.889231,0 m 0.890481,0 0.889235,0 m 0.88921,0 0.88924,0 m 0.88923,0 0.89048,0 m 0.88922,0 0.88923,0 m 0.88924,0 0.88922,0 m 0.89049,0 0.88921,0 m 0.88923,0 0.88923,0 m 0.88923,0 0.89047,0 m 0.88924,0 0.88922,0 m 0.88923,0 0.88923,0 m 0.89047,0 0.88924,0 m 0.88924,0 0.8892,0 m 0.88923,0 0.8905,0 m 0.88921,0 0.88924,0 m 0.88923,0 0.88921,0 m 0.8905,0 0.88923,0 m 0.88922,0 0.88923,0 m 0.88923,0 0.89048,0 m 0.88922,0 0.88923,0"
       id="path2477"
       style="fill:none;stroke:#000000;stroke-width:0.55093092;stroke-linecap:butt;stroke-linejoin:miter;stroke-miterlimit:10;stroke-opacity:1;stroke-dasharray:none"
       inkscape:connector-curvature="0" />
    <path
       d="m 51.974502,268.12765 0.869469,0 m 0.869467,0 0.869468,0 m 0.869457,0 0.869467,0 m 0.869468,0 0.869469,0 m 0.869455,0 0.869468,0 m 0.869468,0 0.869468,0 m 0.869456,0 0.869598,0 m 0.869456,0 0.869467,0 m 0.869481,0 0.869467,0 m 0.869456,0 0.869469,0 m 0.869467,0 0.869468,0 m 0.869456,0 0.869469,0 m 0.869467,0 0.869468,0 m 0.869467,0 0.869457,0 m 0.869468,0 0.869469,0 m 0.869467,0 0.869456,0 m 0.869468,0 0.869468,0 m 0.869468,0 0.869479,0 m 0.868963,0 0.870445,0 m 0.86922,0 0.869232,0 m 0.86921,0 0.86922,0 m 0.870457,0 0.869208,0 m 0.869222,0 0.869232,0 m 0.869208,0 0.870457,0 m 0.869222,0 0.869212,0 m 0.869224,0 0.869224,0 m 0.870446,0 0.869224,0 m 0.869212,0 0.869212,0 m 0.869232,0 0.87045,0 m 0.86922,0 0.86922,0 m 0.86922,0 0.87045,0 m 0.86922,0 0.86921,0 m 0.86923,0 0.86922,0 m 0.87045,0 0.86921,0 m 0.86923,0 0.86921,0 m 0.86923,0 0.87046,0 m 0.8692,0 0.86922,0 m 0.86924,0 0.8692,0 m 0.87045,0 0.86923,0 m 0.86921,0 0.86924,0 m 0.86921,0 0.87044,0 m 0.86923,0 0.86922,0 m 0.8692,0 0.86924,0 m 0.87043,0 0.86924,0 m 0.86922,0 0.86921,0 m 0.86922,0 0.87045,0 m 0.86923,0 0.86921,0"
       id="path2481"
       style="fill:none;stroke:#000000;stroke-width:0.54469794;stroke-linecap:butt;stroke-linejoin:miter;stroke-miterlimit:10;stroke-opacity:1;stroke-dasharray:none"
       inkscape:connector-curvature="0" />
    <path
       d="m 127.66069,268.37069 0,28.24553 m 2.93174,-28.24553 0.096,28.05045 m 2.83464,-28.05045 0.0175,28.14799 m 2.91323,-28.14799 -0.0314,28.14799 m 2.96315,-28.14799 -0.0813,28.14799"
       id="path2489"
       style="fill:none;stroke:#000000;stroke-width:0.14767449;stroke-linecap:butt;stroke-linejoin:miter;stroke-miterlimit:10;stroke-opacity:1;stroke-dasharray:none"
       inkscape:connector-curvature="0" />
    <g
       transform="matrix(1.0344874,0,0,1.0504142,-13.027524,0.51926402)"
       id="g2491" />
    <path
       d="m 133.52312,26.650002 234.48105,0 0,0 c 43.39674,0 82.16208,27.560975 97.00491,68.969045 l 0,-3.17e-4 c 6.16968,17.21292 9.3259,35.39035 9.3259,53.70746 0,18.31713 -3.15622,36.4935 -9.3259,53.70769 l 0,-8.6e-4 c -14.84283,41.40838 -53.60817,68.96915 -97.00491,68.96915 l -234.48105,0 0,0 c -43.397251,0 -82.161872,-27.56077 -97.004798,-68.96915 l 0,8.6e-4 c -6.169683,-17.21419 -9.326529,-35.39056 -9.326529,-53.70769 0,-18.31711 3.156846,-36.49454 9.326529,-53.70746 l 0,3.17e-4 C 51.361248,54.210977 90.125869,26.650002 133.52312,26.650002 z"
       id="path2529"
       style="fill:none;stroke:#000000;stroke-width:0.70088726;stroke-linecap:butt;stroke-linejoin:miter;stroke-miterlimit:10;stroke-opacity:1;stroke-dasharray:none"
       inkscape:connector-curvature="0" />
    <path
       d="m 133.52312,23.019032 234.48105,0 0,0 c 44.89985,0 85.00796,28.515491 100.36492,71.357998 l 0,0 c 6.31244,17.61115 9.54212,36.20767 9.54212,54.94916 0,18.7415 -3.22968,37.33804 -9.54212,54.94928 l 0,0 c -15.35696,42.84219 -55.46507,71.35779 -100.36492,71.35779 l -234.48105,0 0,0 c -44.900565,0 -85.007956,-28.5156 -100.364813,-71.35779 l 0,0 c -6.312758,-17.61124 -9.542327,-36.20778 -9.542327,-54.94928 0,-18.74149 3.229569,-37.33801 9.542327,-54.94916 l 0,0 C 48.515164,51.534523 88.622555,23.019032 133.52312,23.019032 z"
       id="path2531"
       style="fill:none;stroke:#000000;stroke-width:0.70088726;stroke-linecap:butt;stroke-linejoin:miter;stroke-miterlimit:10;stroke-opacity:1;stroke-dasharray:none"
       inkscape:connector-curvature="0" />
    <path
       d="m 133.52312,19.388174 234.48105,0 0,0 c 46.404,0 87.85384,29.470211 103.72494,73.747268 l 0,-4.19e-4 c 6.45521,18.008617 9.75832,37.026367 9.75832,56.191167 0,19.16481 -3.30311,38.18152 -9.75832,56.19087 l 0,0 c -15.8711,44.27706 -57.32094,73.74643 -103.72494,73.74643 l -234.48105,0 0,0 c -46.404207,0 -87.85403,-29.46937 -103.724937,-73.74643 l -3.08e-4,0 c -6.455099,-18.00935 -9.757807,-37.02606 -9.757807,-56.19087 0,-19.1648 3.302708,-38.18255 9.757807,-56.191167 l 3.08e-4,4.19e-4 C 45.66909,48.858385 87.118913,19.388174 133.52312,19.388174 z"
       id="path2533"
       style="fill:none;stroke:#000000;stroke-width:0.70088726;stroke-linecap:butt;stroke-linejoin:miter;stroke-miterlimit:10;stroke-opacity:1;stroke-dasharray:none"
       inkscape:connector-curvature="0" />
    <path
       d="m 133.52312,15.757204 234.48105,0 0,0 c 47.9071,0 90.69971,30.425147 107.08495,76.136231 l 0,0 c 6.59797,18.406715 9.9735,37.844645 9.9735,57.432755 0,19.58813 -3.37553,39.02604 -9.9735,57.43246 l 0,0 c -16.38524,45.71088 -59.17785,76.13613 -107.08495,76.13613 l -234.48105,0 0,0 c -47.907412,0 -90.700015,-30.42525 -107.085359,-76.13613 l 0,0 c -6.598065,-18.40642 -9.973496,-37.84433 -9.973496,-57.43246 0,-19.58811 3.375431,-39.02604 9.973496,-57.432755 l 0,0 C 42.823105,46.182351 85.615708,15.757204 133.52312,15.757204 z"
       id="path2535"
       style="fill:none;stroke:#000000;stroke-width:0.70088726;stroke-linecap:butt;stroke-linejoin:miter;stroke-miterlimit:10;stroke-opacity:1;stroke-dasharray:none"
       inkscape:connector-curvature="0" />
    <path
       d="m 133.52312,12.126345 234.48105,0 0,0 c 49.41022,0 93.54558,31.379439 110.44497,78.525399 l 0,-3.18e-4 c 6.74072,18.805254 10.1897,38.663334 10.1897,58.674764 0,20.01145 -3.44898,39.86954 -10.1897,58.67405 l 0,0 c -16.89939,47.14575 -61.03475,78.52581 -110.44497,78.52581 l -234.48105,0 0,0 c -49.410626,0 -93.546099,-31.38006 -110.445375,-78.52581 l 0,0 c -6.740822,-18.80451 -10.189293,-38.6626 -10.189293,-58.67405 0,-20.01143 3.448471,-39.86951 10.189293,-58.674764 l 0,3.18e-4 C 39.977021,43.505784 84.112494,12.126345 133.52312,12.126345 z"
       id="path2537"
       style="fill:none;stroke:#000000;stroke-width:0.70088726;stroke-linecap:butt;stroke-linejoin:miter;stroke-miterlimit:10;stroke-opacity:1;stroke-dasharray:none"
       inkscape:connector-curvature="0" />
    <path
       d="m 133.52312,8.4954358 234.48105,0 0,0 c 50.91333,0 96.39146,32.3343132 113.80498,80.9142922 l 0,0 c 6.88348,19.202412 10.40488,39.481712 10.40488,59.916462 0,20.43477 -3.5214,40.71302 -10.40488,59.91563 l 0,0 c -17.41352,48.58061 -62.89165,80.91447 -113.80498,80.91447 l -234.48105,0 0,0 c -50.91394,0 -96.392173,-32.33386 -113.805499,-80.91447 l 0,0 C 12.834249,190.03921 9.3125392,169.76096 9.3125392,149.32619 c 0,-20.43475 3.5217098,-40.71405 10.4050818,-59.916462 l 0,0 C 37.130947,40.829749 82.60918,8.4954358 133.52312,8.4954358 z"
       id="path2539"
       style="fill:none;stroke:#000000;stroke-width:0.70088726;stroke-linecap:butt;stroke-linejoin:miter;stroke-miterlimit:10;stroke-opacity:1;stroke-dasharray:none"
       inkscape:connector-curvature="0" />
    <path
       d="m 133.52312,30.504078 234.48105,0 0,0 c 41.80156,0 79.14034,26.547534 93.438,66.432916 l 0,0 c 6.01865,16.790666 9.09728,34.521656 9.09728,52.389196 0,17.86756 -3.07863,35.59855 -9.09728,52.38837 l 0,0 c -14.29766,39.88634 -51.63644,66.43344 -93.438,66.43344 l -234.48105,0 0,0 c -41.801553,0 -79.14086,-26.5471 -93.437784,-66.43344 l 0,0 c -6.018652,-16.78982 -9.097795,-34.52081 -9.097795,-52.38837 0,-17.86754 3.079143,-35.59853 9.097795,-52.389196 l 0,0 C 54.38226,57.051612 91.721567,30.504078 133.52312,30.504078 z"
       id="path2541"
       style="fill:none;stroke:#000000;stroke-width:0.70088726;stroke-linecap:butt;stroke-linejoin:miter;stroke-miterlimit:10;stroke-opacity:1;stroke-dasharray:none"
       inkscape:connector-curvature="0" />
    <path
       d="m 83.908391,263.22156 -1.660872,3.21532"
       id="path2545"
       style="fill:none;stroke:#000000;stroke-width:0.70088726;stroke-linecap:butt;stroke-linejoin:miter;stroke-miterlimit:10;stroke-opacity:1;stroke-dasharray:none"
       inkscape:connector-curvature="0" />
    <path
       d="m 64.976029,255.03359 -2.220525,2.84558"
       id="path2547"
       style="fill:none;stroke:#000000;stroke-width:0.70088726;stroke-linecap:butt;stroke-linejoin:miter;stroke-miterlimit:10;stroke-opacity:1;stroke-dasharray:none"
       inkscape:connector-curvature="0" />
    <path
       d="m 48.26668,243.96222 -2.675491,2.4086"
       id="path2549"
       style="fill:none;stroke:#000000;stroke-width:0.70088726;stroke-linecap:butt;stroke-linejoin:miter;stroke-miterlimit:10;stroke-opacity:1;stroke-dasharray:none"
       inkscape:connector-curvature="0" />
    <path
       d="m 33.998822,230.66818 -3.027946,1.93066"
       id="path2551"
       style="fill:none;stroke:#000000;stroke-width:0.70088726;stroke-linecap:butt;stroke-linejoin:miter;stroke-miterlimit:10;stroke-opacity:1;stroke-dasharray:none"
       inkscape:connector-curvature="0" />
    <g
       transform="matrix(1.0344874,0,0,1.0504142,-13.027524,0.51926402)"
       id="g2555" />
    <path
       d="m 376.72075,30.668566 0.31242,-3.616888"
       id="path2571"
       style="fill:none;stroke:#000000;stroke-width:0.70088726;stroke-linecap:butt;stroke-linejoin:miter;stroke-miterlimit:10;stroke-opacity:1;stroke-dasharray:none"
       inkscape:connector-curvature="0" />
    <g
       transform="matrix(1.0344874,0,0,1.0504142,-13.027524,0.51926402)"
       id="g2573" />
    <path
       d="m 386.90632,28.422151 0.65483,-3.569832"
       id="path2579"
       style="fill:none;stroke:#000000;stroke-width:0.70088726;stroke-linecap:butt;stroke-linejoin:miter;stroke-miterlimit:10;stroke-opacity:1;stroke-dasharray:none"
       inkscape:connector-curvature="0" />
    <path
       d="m 397.78913,27.321215 0.99724,-3.486435"
       id="path2581"
       style="fill:none;stroke:#000000;stroke-width:0.70088726;stroke-linecap:butt;stroke-linejoin:miter;stroke-miterlimit:10;stroke-opacity:1;stroke-dasharray:none"
       inkscape:connector-curvature="0" />
    <path
       d="m 408.40815,27.166592 1.30862,-3.37897"
       id="path2583"
       style="fill:none;stroke:#000000;stroke-width:0.70088726;stroke-linecap:butt;stroke-linejoin:miter;stroke-miterlimit:10;stroke-opacity:1;stroke-dasharray:none"
       inkscape:connector-curvature="0" />
    <path
       d="m 418.7106,27.843162 1.59001,-3.251765"
       id="path2585"
       style="fill:none;stroke:#000000;stroke-width:0.70088726;stroke-linecap:butt;stroke-linejoin:miter;stroke-miterlimit:10;stroke-opacity:1;stroke-dasharray:none"
       inkscape:connector-curvature="0" />
    <path
       d="m 428.66134,29.24725 1.84552,-3.109751"
       id="path2587"
       style="fill:none;stroke:#000000;stroke-width:0.70088726;stroke-linecap:butt;stroke-linejoin:miter;stroke-miterlimit:10;stroke-opacity:1;stroke-dasharray:none"
       inkscape:connector-curvature="0" />
    <path
       d="m 384.92981,270.26374 0.88255,3.8058"
       id="path2591"
       style="fill:none;stroke:#000000;stroke-width:0.70088726;stroke-linecap:butt;stroke-linejoin:miter;stroke-miterlimit:10;stroke-opacity:1;stroke-dasharray:none"
       inkscape:connector-curvature="0" />
    <path
       d="m 409.42355,267.16929 1.60035,3.24683"
       id="path2593"
       style="fill:none;stroke:#000000;stroke-width:0.70088726;stroke-linecap:butt;stroke-linejoin:miter;stroke-miterlimit:10;stroke-opacity:1;stroke-dasharray:none"
       inkscape:connector-curvature="0" />
    <path
       d="m 432.24882,258.10669 1.93702,3.17345"
       id="path2595"
       style="fill:none;stroke:#000000;stroke-width:0.70088726;stroke-linecap:butt;stroke-linejoin:miter;stroke-miterlimit:10;stroke-opacity:1;stroke-dasharray:none"
       inkscape:connector-curvature="0" />
    <path
       d="m 454.36997,243.07204 2.39809,1.98929"
       id="path2597"
       style="fill:none;stroke:#000000;stroke-width:0.70088726;stroke-linecap:butt;stroke-linejoin:miter;stroke-miterlimit:10;stroke-opacity:1;stroke-dasharray:none"
       inkscape:connector-curvature="0" />
    <path
       d="m 470.2944,226.09213 3.12253,2.07628"
       id="path2599"
       style="fill:none;stroke:#000000;stroke-width:0.90151072;stroke-linecap:butt;stroke-linejoin:miter;stroke-miterlimit:10;stroke-opacity:1;stroke-dasharray:none"
       inkscape:connector-curvature="0" />
    <path
       d="m 100.79608,262.12914 -3.834832,11.12283"
       id="path2605"
       style="fill:none;stroke:#000000;stroke-width:0.37509307;stroke-linecap:butt;stroke-linejoin:miter;stroke-miterlimit:10;stroke-opacity:1;stroke-dasharray:none"
       inkscape:connector-curvature="0" />
    <path
       d="m 100.36988,263.36442 -0.426208,1.23634 m -0.42621,1.23529 -0.425177,1.23633 m -0.42621,1.23529 -0.426209,1.23634 m -0.426209,1.23529 -0.425168,1.23633"
       id="path2607"
       style="fill:none;stroke:#000000;stroke-width:0.70088726;stroke-linecap:butt;stroke-linejoin:miter;stroke-miterlimit:10;stroke-opacity:1;stroke-dasharray:none"
       inkscape:connector-curvature="0" />
    <g
       transform="matrix(1.0344874,0,0,1.0504142,-13.027524,0.51926402)"
       id="g2635" />
    <g
       transform="matrix(1.0344874,0,0,1.0504142,-13.027524,0.51926402)"
       id="g2643" />
    <g
       transform="matrix(1.0344874,0,0,1.0504142,-13.027524,0.51926402)"
       id="g2651" />
    <g
       transform="matrix(1.0344874,0,0,1.0504142,-13.027524,0.51926402)"
       id="g2659" />
    <g
       transform="matrix(1.0344874,0,0,1.0504142,-13.027524,0.51926402)"
       id="g2667" />
    <g
       transform="matrix(1.0344874,0,0,1.0504142,-13.027524,0.51926402)"
       id="g2997" />
    <path
       d="m 133.5221,186.52767 0,0.7437"
       id="path3215"
       style="fill:none;stroke:#000000;stroke-width:0.23627916;stroke-linecap:butt;stroke-linejoin:miter;stroke-miterlimit:10;stroke-opacity:1;stroke-dasharray:none"
       inkscape:connector-curvature="0" />
    <path
       d="m 30.892984,149.32619 -0.125278,0"
       id="path3537"
       style="fill:none;stroke:#000000;stroke-width:0.23627916;stroke-linecap:butt;stroke-linejoin:miter;stroke-miterlimit:10;stroke-opacity:1;stroke-dasharray:none"
       inkscape:connector-curvature="0" />
    <path
       d="m 470.63462,149.32619 0.12517,0"
       id="path3751"
       style="fill:none;stroke:#000000;stroke-width:0.23627916;stroke-linecap:butt;stroke-linejoin:miter;stroke-miterlimit:10;stroke-opacity:1;stroke-dasharray:none"
       inkscape:connector-curvature="0" />
    <g
       transform="matrix(1.0344874,0,0,1.0504142,-13.027524,0.51926402)"
       id="g5025" />
    <g
       transform="matrix(1.0344874,0,0,1.0504142,-13.027524,0.51926402)"
       id="g5049" />
    <g
       transform="matrix(1.0344874,0,0,1.0504142,-13.027524,0.51926402)"
       id="g5081" />
    <g
       transform="matrix(1.0344874,0,0,1.0504142,-13.027524,0.51926402)"
       id="g5109" />
    <g
       transform="matrix(1.0344874,0,0,1.0504142,-13.027524,0.51926402)"
       id="g5143" />
    <g
       transform="matrix(1.0344874,0,0,1.0504142,-13.027524,0.51926402)"
       id="g5153" />
    <g
       transform="matrix(1.0344874,0,0,1.0504142,-13.027524,0.51926402)"
       id="g5177" />
    <g
       transform="matrix(1.0344874,0,0,1.0504142,-13.027524,0.51926402)"
       id="g5197" />
    <g
       transform="matrix(1.0344874,0,0,1.0504142,-13.027524,0.51926402)"
       id="g5217" />
    <path
       d="m 356.27928,202.89628 0,0"
       id="path5305"
       style="fill:none;stroke:#800080;stroke-width:0.23627916;stroke-linecap:butt;stroke-linejoin:miter;stroke-miterlimit:10;stroke-opacity:1;stroke-dasharray:none"
       inkscape:connector-curvature="0" />
    <g
       transform="matrix(1.0344874,0,0,1.0504142,-13.027524,0.51926402)"
       id="g5307" />
    <g
       transform="matrix(1.0344874,0,0,1.0504142,-13.027524,0.51926402)"
       id="g5339" />
    <path
       d="m 372.40074,134.44497 0,0"
       id="path5393"
       style="fill:none;stroke:#800080;stroke-width:0.23627916;stroke-linecap:butt;stroke-linejoin:miter;stroke-miterlimit:10;stroke-opacity:1;stroke-dasharray:none"
       inkscape:connector-curvature="0" />
    <g
       transform="matrix(1.0344874,0,0,1.0504142,-13.027524,0.51926402)"
       id="g5395" />
    <g
       transform="matrix(1.0344874,0,0,1.0504142,-13.027524,0.51926402)"
       id="g5415" />
    <g
       transform="matrix(1.0344874,0,0,1.0504142,-13.027524,0.51926402)"
       id="g5501" />
    <g
       transform="matrix(1.0344874,0,0,1.0504142,-13.027524,0.51926402)"
       id="g5673" />
    <g
       transform="matrix(1.0344874,0,0,1.0504142,-13.027524,0.51926402)"
       id="g5713" />
    <g
       transform="matrix(1.0344874,0,0,1.0504142,-13.027524,0.51926402)"
       id="g5721" />
    <path
       d="m 482.55723,206.26537 2.68645,1.24389"
       id="path3402"
       style="fill:none;stroke:#000000;stroke-width:0.70088726;stroke-linecap:butt;stroke-linejoin:miter;stroke-miterlimit:10;stroke-opacity:1;stroke-dasharray:none"
       inkscape:connector-curvature="0" />
    <path
       d="m 491.44538,184.61044 2.5506,0.69212"
       id="path3404"
       style="fill:none;stroke:#000000;stroke-width:0.70088726;stroke-linecap:butt;stroke-linejoin:miter;stroke-miterlimit:10;stroke-opacity:1;stroke-dasharray:none"
       inkscape:connector-curvature="0" />
    <path
       d="m 22.8591,217.42576 -3.027936,1.37889"
       id="path3424"
       style="fill:none;stroke:#000000;stroke-width:0.70088726;stroke-linecap:butt;stroke-linejoin:miter;stroke-miterlimit:10;stroke-opacity:1;stroke-dasharray:none"
       inkscape:connector-curvature="0" />
    <path
       d="m 13.494088,200.59686 -4.1147428,1.3789"
       id="path3426"
       style="fill:none;stroke:#000000;stroke-width:0.70088726;stroke-linecap:butt;stroke-linejoin:miter;stroke-miterlimit:10;stroke-opacity:1;stroke-dasharray:none"
       inkscape:connector-curvature="0" />
    <path
       d="m 440.15234,32.396248 1.60678,-2.413106"
       id="path3428"
       style="fill:none;stroke:#000000;stroke-width:0.70088726;stroke-linecap:butt;stroke-linejoin:miter;stroke-miterlimit:10;stroke-opacity:1;stroke-dasharray:none"
       inkscape:connector-curvature="0" />
    <path
       d="m 451.45876,37.861878 1.80042,-2.127315"
       id="path3430"
       style="fill:none;stroke:#000000;stroke-width:0.70088726;stroke-linecap:butt;stroke-linejoin:miter;stroke-miterlimit:10;stroke-opacity:1;stroke-dasharray:none"
       inkscape:connector-curvature="0" />
    <path
       d="m 43.059368,267.85413 -0.103971,29.52004"
       id="path3559"
       style="fill:none;stroke:#000000;stroke-width:0.47145036px;stroke-linecap:butt;stroke-linejoin:miter;stroke-opacity:1;display:inline"
       inkscape:connector-curvature="0" />
    <text
       x="266.58411"
       y="-39.41291"
       transform="matrix(0,1.0076686,-0.99238976,0,0,0)"
       id="text3561"
       xml:space="preserve"
       style="font-size:3.73806596px;font-style:normal;font-variant:normal;font-weight:normal;font-stretch:normal;text-align:start;line-height:100%;writing-mode:lr-tb;text-anchor:start;fill:#000000;fill-opacity:1;stroke:none;display:inline;font-family:Arial;-inkscape-font-specification:Arial"
       sodipodi:linespacing="100%"><tspan
         x="266.58411"
         y="-39.41291"
         id="tspan3563">1</tspan></text>
    <text
       x="270.59506"
       y="-39.41291"
       transform="matrix(0,1.0076686,-0.99238976,0,0,0)"
       id="text3565"
       xml:space="preserve"
       style="font-size:3.73806596px;font-style:normal;font-variant:normal;font-weight:normal;font-stretch:normal;text-align:start;line-height:100%;writing-mode:lr-tb;text-anchor:start;fill:#000000;fill-opacity:1;stroke:none;display:inline;font-family:Arial;-inkscape-font-specification:Arial"
       sodipodi:linespacing="100%"><tspan
         x="270.59506"
         y="-39.41291"
         id="tspan3567">2</tspan></text>
    <text
       x="274.00366"
       y="-39.41291"
       transform="matrix(0,1.0076686,-0.99238976,0,0,0)"
       id="text3569"
       xml:space="preserve"
       style="font-size:3.73806596px;font-style:normal;font-variant:normal;font-weight:normal;font-stretch:normal;text-align:start;line-height:100%;writing-mode:lr-tb;text-anchor:start;fill:#000000;fill-opacity:1;stroke:none;display:inline;font-family:Arial;-inkscape-font-specification:Arial"
       sodipodi:linespacing="100%"><tspan
         x="274.00366"
         y="-39.41291"
         id="tspan3571">3</tspan></text>
    <text
       x="277.74176"
       y="-39.41291"
       transform="matrix(0,1.0076686,-0.99238976,0,0,0)"
       id="text3573"
       xml:space="preserve"
       style="font-size:3.73806596px;font-style:normal;font-variant:normal;font-weight:normal;font-stretch:normal;text-align:start;line-height:100%;writing-mode:lr-tb;text-anchor:start;fill:#000000;fill-opacity:1;stroke:none;display:inline;font-family:Arial;-inkscape-font-specification:Arial"
       sodipodi:linespacing="100%"><tspan
         x="277.74176"
         y="-39.41291"
         id="tspan3575">4</tspan></text>
    <text
       x="281.31274"
       y="-39.41291"
       transform="matrix(0,1.0076686,-0.99238976,0,0,0)"
       id="text3577"
       xml:space="preserve"
       style="font-size:3.73806596px;font-style:normal;font-variant:normal;font-weight:normal;font-stretch:normal;text-align:start;line-height:100%;writing-mode:lr-tb;text-anchor:start;fill:#000000;fill-opacity:1;stroke:none;display:inline;font-family:Arial;-inkscape-font-specification:Arial"
       sodipodi:linespacing="100%"><tspan
         x="281.31274"
         y="-39.41291"
         id="tspan3579">5</tspan></text>
    <text
       x="285.04349"
       y="-39.41291"
       transform="matrix(0,1.0076686,-0.99238976,0,0,0)"
       id="text3581"
       xml:space="preserve"
       style="font-size:3.73806596px;font-style:normal;font-variant:normal;font-weight:normal;font-stretch:normal;text-align:start;line-height:100%;writing-mode:lr-tb;text-anchor:start;fill:#000000;fill-opacity:1;stroke:none;display:inline;font-family:Arial;-inkscape-font-specification:Arial"
       sodipodi:linespacing="100%"><tspan
         x="285.04349"
         y="-39.41291"
         id="tspan3583">6</tspan></text>
    <text
       x="288.52319"
       y="-39.41291"
       transform="matrix(0,1.0076686,-0.99238976,0,0,0)"
       id="text3585"
       xml:space="preserve"
       style="font-size:3.73806596px;font-style:normal;font-variant:normal;font-weight:normal;font-stretch:normal;text-align:start;line-height:100%;writing-mode:lr-tb;text-anchor:start;fill:#000000;fill-opacity:1;stroke:none;display:inline;font-family:Arial;-inkscape-font-specification:Arial"
       sodipodi:linespacing="100%"><tspan
         x="288.52319"
         y="-39.41291"
         id="tspan3587">7</tspan></text>
    <path
       d="M 413.98513,42.080616 429.85052,18.542913"
       id="path3643"
       style="fill:none;stroke:#000000;stroke-width:0.60294151px;stroke-linecap:butt;stroke-linejoin:miter;stroke-opacity:1;display:inline"
       inkscape:connector-curvature="0" />
    <path
       d="M 185.71913,30.546864 C 185.44629,18.055577 183.87422,10.841302 182.64519,2.2336353"
       id="path3645"
       style="fill:none;stroke:#000000;stroke-width:0.46725824px;stroke-linecap:butt;stroke-linejoin:miter;stroke-opacity:1;display:inline"
       inkscape:connector-curvature="0" />
    <path
       d="m 132.03656,5.4307002 237.2217,0 0,0 c 51.50841,0 97.5182,33.0852568 115.13523,82.7934948 l 0,0 c 6.96397,19.648445 10.52641,40.398735 10.52641,61.307975 0,20.90939 -3.56244,41.65865 -10.52641,61.3072 l 0,0 c -17.61703,49.70895 -63.62682,82.79371 -115.13523,82.79371 l -237.2217,0 0,0 c -51.509175,0 -97.518996,-33.08476 -115.135849,-82.79371 l 0,0 C 9.9368889,191.19082 6.3740014,170.44156 6.3740014,149.53217 c 0,-20.90924 3.5628875,-41.65953 10.5267096,-61.307975 l 0,0 C 34.517564,38.515957 80.527385,5.4307002 132.03656,5.4307002 z"
       id="path3366"
       style="fill:none;stroke:#000000;stroke-width:0.71326047;stroke-linecap:butt;stroke-linejoin:miter;stroke-miterlimit:10;stroke-opacity:1;stroke-dasharray:none;display:inline"
       inkscape:connector-curvature="0" />
    <path
       d="m 129.74074,2.3810672 240.45928,0 0,0 c 52.21141,0 98.84933,33.8270438 116.70678,84.6496668 l 0,0 c 7.0589,20.088986 10.6699,41.304546 10.6699,62.682536 0,21.37813 -3.611,42.59254 -10.6699,62.68166 l 0,0 c -17.85745,50.82336 -64.49537,84.64992 -116.70678,84.64992 l -240.45928,0 0,0 c -52.212255,0 -98.849997,-33.82656 -116.707289,-84.64992 l 0,0 C 5.9745759,192.30581 2.363061,171.0914 2.363061,149.71327 c 0,-21.37799 3.6115149,-42.59355 10.67039,-62.682536 l 0,0 C 30.890743,36.208111 77.528485,2.3810672 129.74074,2.3810672 z"
       id="path3370"
       style="fill:none;stroke:#000000;stroke-width:0.72611642;stroke-linecap:butt;stroke-linejoin:miter;stroke-miterlimit:10;stroke-opacity:1;stroke-dasharray:none;display:inline"
       inkscape:connector-curvature="0" />
    <path
       d="m 398.79878,293.63272 54.3356,0"
       id="path3396"
       style="fill:none;stroke:#000000;stroke-width:0.70088732;stroke-linecap:butt;stroke-linejoin:miter;stroke-miterlimit:4;stroke-opacity:1;stroke-dasharray:none;display:inline"
       inkscape:connector-curvature="0" />
    <text
       x="291.9718"
       y="-39.350929"
       transform="matrix(0,1.0076686,-0.99238976,0,0,0)"
       id="text3398"
       xml:space="preserve"
       style="font-size:3.73806596px;font-style:normal;font-variant:normal;font-weight:normal;font-stretch:normal;text-align:start;line-height:100%;writing-mode:lr-tb;text-anchor:start;fill:#000000;fill-opacity:1;stroke:none;display:inline;font-family:Arial;-inkscape-font-specification:Arial"
       sodipodi:linespacing="100%"><tspan
         x="291.9718"
         y="-39.350929"
         id="tspan3400">8</tspan></text>
    <path
       d="m 130.46665,268.07735 0,0 z"
       id="path3412"
       style="fill:none;stroke:#000000;stroke-width:0.46725824px;stroke-linecap:butt;stroke-linejoin:miter;stroke-opacity:1;display:inline"
       inkscape:connector-curvature="0" />
    <path
       d="m 144.19914,26.351529 0,-3.436354"
       id="path3542"
       style="fill:none;stroke:#000000;stroke-width:0.46725824px;stroke-linecap:butt;stroke-linejoin:miter;stroke-opacity:1;display:inline"
       inkscape:connector-curvature="0" />
    <g
       transform="matrix(0.97937659,0,0,0.93583865,4.4020945,-3.1720498)"
       id="g5754">
      <rect
         width="23.497269"
         height="10.66882"
         x="148.94812"
         y="43.223816"
         id="rect38140_1_"
         style="fill:#ffff64;fill-opacity:1;stroke:#000000;stroke-width:0.58164471;stroke-linecap:round" />
      <rect
         width="168.09584"
         height="2.807584"
         x="172.44534"
         y="47.154408"
         id="rect38144_1_"
         style="fill:#ff6244;fill-opacity:1;stroke:#000000;stroke-width:0.58164471;stroke-linecap:round" />
      <rect
         width="23.497269"
         height="10.66882"
         x="329.09387"
         y="53.331131"
         id="rect42022_1_"
         style="fill:#ffff64;fill-opacity:1;stroke:#000000;stroke-width:0.58164471;stroke-linecap:round" />
      <rect
         width="168.09584"
         height="2.807584"
         x="160.99797"
         y="57.26178"
         id="rect42024_1_"
         style="fill:#ff6244;fill-opacity:1;stroke:#000000;stroke-width:0.58164471;stroke-linecap:round" />
    </g>
    <path
       d="m 443.32369,65.361383 -0.25996,0.10426 c 6.86302,9.102437 9.96665,19.449047 10.43963,31.030531 l 4.11623,100.314996 c 0.083,2.04743 0.0353,4.09669 -0.14624,6.13494 -0.6365,7.15998 -2.8955,14.06608 -6.60498,20.19646 l 9e-5,-8.7e-4 c 1.80202,-2.97707 3.44765,-6.04759 4.92937,-9.1986 l 8.5e-4,1.2e-4 c 8.01574,-15.97394 12.26425,-33.46058 13.84556,-51.24869 1.5814,-17.78917 0.0335,-35.74889 -4.57239,-53.06552 l -8.5e-4,-9e-5 C 460.66851,93.076903 453.79505,78.009043 443.17103,65.312835"
       id="path2423-8"
       style="fill:#ff6244;fill-opacity:1;stroke:#000000;stroke-width:0.29765466;stroke-linecap:butt;stroke-linejoin:miter;stroke-miterlimit:10;stroke-opacity:1;stroke-dasharray:none"
       inkscape:connector-curvature="0" />
    <path
       d="m 78.889015,286.51151 0.975597,0 m 0.975598,0 0.975599,0 m 0.975597,0 0.975598,0 m 0.975597,0 0.975585,0 m 0.975599,0 0.975598,0 m 0.975043,0 0.976706,0 m 0.975308,0 0.97532,0 m 0.975322,0 0.97532,0 m 0.976694,0 0.975334,0 m 0.975308,0 0.97532,0 m 0.97532,0 0.976694,0 m 0.975338,0 0.97531,0 m 0.97531,0 0.97533,0 m 0.97671,0 0.97529,0 m 0.97534,0 0.97533,0 m 0.97529,0 0.97671,0 m 0.97533,0 0.97532,0 m 0.97532,0 0.97531,0 m 0.9767,0 0.97532,0 m 0.97533,0 0.97531,0 m 0.97532,0 0.9767,0 m 0.97532,0 0.97532,0 m 0.97532,0 0.97669,0 m 0.97534,0 0.97531,0 m 0.97531,0 0.97532,0 m 0.9767,0 0.97532,0 m 0.97533,0 0.97531,0 m 0.97532,0 0.9767,0 m 0.97532,0 0.97533,0 m 0.97532,0 0.97531,0 m 0.97671,0 0.9753,0 m 0.97532,0 0.97534,0 m 0.97532,0 0.97669,0 m 0.97532,0 0.97531,0"
       id="path2469-7"
       style="fill:none;stroke:#000000;stroke-width:0.57698482;stroke-linecap:butt;stroke-linejoin:miter;stroke-miterlimit:10;stroke-opacity:1;stroke-dasharray:none"
       inkscape:connector-curvature="0" />
    <path
       d="m 68.076868,282.91151 0.975597,0 m 0.975598,0 0.975599,0 m 0.975597,0 0.975598,0 m 0.975597,0 0.975585,0 m 0.975599,0 0.975598,0 m 0.975042,0 0.976706,0 m 0.975308,0 0.97532,0 m 0.975322,0 0.97532,0 m 0.976694,0 0.975334,0 m 0.975308,0 0.97532,0 m 0.97532,0 0.976694,0 m 0.975338,0 0.97531,0 m 0.97531,0 0.97533,0 m 0.97671,0 0.97529,0 m 0.97534,0 0.97533,0 m 0.97529,0 0.97671,0 m 0.97533,0 0.975318,0 m 0.97532,0 0.97531,0 m 0.9767,0 0.97532,0 m 0.97533,0 0.97531,0 m 0.97532,0 0.9767,0 m 0.97532,0 0.97532,0 m 0.97532,0 0.97669,0 m 0.97534,0 0.97531,0 m 0.97531,0 0.97532,0 m 0.9767,0 0.97532,0 m 0.97533,0 0.97531,0 m 0.97532,0 0.9767,0 m 0.97532,0 0.97533,0 m 0.97532,0 0.97531,0 m 0.97671,0 0.9753,0 m 0.97532,0 0.97534,0 m 0.97532,0 0.97669,0 m 0.97532,0 0.97531,0"
       id="path2469-7-6"
       style="fill:none;stroke:#000000;stroke-width:0.57698482;stroke-linecap:butt;stroke-linejoin:miter;stroke-miterlimit:10;stroke-opacity:1;stroke-dasharray:none"
       inkscape:connector-curvature="0" />
    <path
       d="m 78.312601,290.11151 0.975597,0 m 0.975598,0 0.975599,0 m 0.975597,0 0.975598,0 m 0.975597,0 0.975585,0 m 0.975599,0 0.975598,0 m 0.975042,0 0.976706,0 m 0.975308,0 0.97532,0 m 0.975322,0 0.97532,0 m 0.976694,0 0.975334,0 m 0.975308,0 0.97532,0 m 0.97532,0 0.976694,0 m 0.975338,0 0.975305,0 m 0.97531,0 0.97533,0 m 0.97671,0 0.97529,0 m 0.97534,0 0.97533,0 m 0.97529,0 0.97671,0 m 0.97533,0 0.97532,0 m 0.97532,0 0.97531,0 m 0.9767,0 0.97532,0 m 0.97533,0 0.97531,0 m 0.97532,0 0.9767,0 m 0.97532,0 0.97532,0 m 0.97532,0 0.97669,0 m 0.97534,0 0.97531,0 m 0.97531,0 0.97532,0 m 0.9767,0 0.97532,0 m 0.97533,0 0.97531,0 m 0.97532,0 0.9767,0 m 0.97532,0 0.97533,0 m 0.97532,0 0.97531,0 m 0.97671,0 0.9753,0 m 0.97532,0 0.97534,0 m 0.97532,0 0.97669,0 m 0.97532,0 0.97531,0"
       id="path2469-7-8"
       style="fill:none;stroke:#000000;stroke-width:0.57698482;stroke-linecap:butt;stroke-linejoin:miter;stroke-miterlimit:10;stroke-opacity:1;stroke-dasharray:none"
       inkscape:connector-curvature="0" />
    <path
       d="m 79.162922,293.61151 0.975596,0 m 0.975598,0 0.975599,0 m 0.975597,0 0.975598,0 m 0.975597,0 0.975585,0 m 0.975599,0 0.975598,0 m 0.975043,0 0.976706,0 m 0.975308,0 0.97532,0 m 0.975322,0 0.97532,0 m 0.976694,0 0.975334,0 m 0.975308,0 0.97532,0 m 0.97532,0 0.976694,0 m 0.975342,0 0.97531,0 m 0.9753,0 0.97533,0 m 0.97671,0 0.97529,0 m 0.97534,0 0.97533,0 m 0.97529,0 0.97671,0 m 0.97533,0 0.97532,0 m 0.97532,0 0.97531,0 m 0.9767,0 0.97532,0 m 0.97533,0 0.97531,0 m 0.97532,0 0.9767,0 m 0.97532,0 0.97532,0 m 0.97532,0 0.97669,0 m 0.97534,0 0.97531,0 m 0.97531,0 0.97532,0 m 0.9767,0 0.97532,0 m 0.97533,0 0.97531,0 m 0.97532,0 0.9767,0 m 0.97532,0 0.97533,0 m 0.97532,0 0.97531,0 m 0.97671,0 0.9753,0 m 0.97532,0 0.97534,0 m 0.97532,0 0.97669,0 m 0.97532,0 0.97531,0"
       id="path2469-7-0"
       style="fill:none;stroke:#000000;stroke-width:0.57698482;stroke-linecap:butt;stroke-linejoin:miter;stroke-miterlimit:10;stroke-opacity:1;stroke-dasharray:none"
       inkscape:connector-curvature="0" />
    <path
       d="m 376.96025,267.89608 1.08275,0 m 1.08275,0 1.08276,0 m 1.08275,0 1.08275,0 m 1.08275,0 1.08275,0 m 1.08274,0 1.08275,0 m 1.08215,0 1.08397,0 m 1.08244,0 1.08244,0 m 1.08244,0 1.08244,0 m 1.08398,0 1.08245,0 m 1.08244,0 1.08243,0 m 1.08245,0 1.08396,0 m 1.08247,0 1.08244,0 m 1.08242,0 1.08246,0 m 1.08399,0 1.08241,0 m 1.08247,0 1.08245,0 m 1.0824,0 1.08399,0 m 1.08246,0 1.08244,0 m 1.08244,0 1.08244,0 m 1.08397,0 1.08245,0 m 1.08245,0 1.08244,0 m 1.08244,0 1.08398,0 m 1.08243,0 1.08245,0 m 1.08244,0 1.08397,0 m 1.08246,0 1.08244,0 m 1.08243,0 1.08244,0 m 1.08397,0 1.08245,0 m 1.08246,0 1.08242,0 m 1.08245,0 1.08397,0 m 1.08245,0 1.08245,0 m 1.08245,0 1.08243,0 m 1.08398,0 1.08242,0 m 1.08246,0 1.08246,0 m 1.08244,0 1.08397,0 m 1.08244,0 1.08243,0"
       id="path2469-7-1"
       style="fill:none;stroke:#000000;stroke-width:0.6078459;stroke-linecap:butt;stroke-linejoin:miter;stroke-miterlimit:10;stroke-opacity:1;stroke-dasharray:none"
       inkscape:connector-curvature="0" />
    <path
       d="m 371.12802,272.01151 1.08448,0 m 1.0845,0 1.08448,0 m 1.0845,0 1.08448,0 m 1.0845,0 1.08449,0 m 1.08448,0 1.08448,0 m 1.08389,0 1.08571,0 m 1.08417,0 1.08419,0 m 1.08417,0 1.08419,0 m 1.08572,0 1.08418,0 m 1.08418,0 1.08417,0 m 1.08419,0 1.08571,0 m 1.08419,0 1.08418,0 m 1.08416,0 1.0842,0 m 1.08573,0 1.08415,0 m 1.0842,0 1.08419,0 m 1.08414,0 1.08573,0 m 1.0842,0 1.08418,0 m 1.08418,0 1.08416,0 m 1.08572,0 1.08419,0 m 1.08418,0 1.08419,0 m 1.08418,0 1.08572,0 m 1.08418,0 1.08418,0 m 1.08418,0 1.0857,0 m 1.08421,0 1.08417,0 m 1.08417,0 1.08418,0 m 1.08571,0 1.08419,0 m 1.08418,0 1.08418,0 m 1.08419,0 1.0857,0 m 1.08419,0 1.08419,0 m 1.08418,0 1.08417,0 m 1.08573,0 1.08416,0 m 1.08418,0 1.0842,0 m 1.08418,0 1.08571,0 m 1.08418,0 1.08417,0"
       id="path2469-7-1-5"
       style="fill:none;stroke:#000000;stroke-width:0.60833365;stroke-linecap:butt;stroke-linejoin:miter;stroke-miterlimit:10;stroke-opacity:1;stroke-dasharray:none"
       inkscape:connector-curvature="0" />
    <path
       d="m 372.45476,275.61151 1.0067,0 m 1.00671,0 1.00671,0 m 1.00672,0 1.0067,0 m 1.00671,0 1.0067,0 m 1.00671,0 1.00671,0 m 1.00614,0 1.00785,0 m 1.00641,0 1.00642,0 m 1.00643,0 1.00642,0 m 1.00785,0 1.00643,0 m 1.00641,0 1.00643,0 m 1.00642,0 1.00784,0 m 1.00644,0 1.00641,0 m 1.00642,0 1.00643,0 m 1.00786,0 1.00639,0 m 1.00644,0 1.00644,0 m 1.00639,0 1.00786,0 m 1.00643,0 1.00642,0 m 1.00643,0 1.00641,0 m 1.00785,0 1.00642,0 m 1.00643,0 1.00642,0 m 1.00642,0 1.00785,0 m 1.00642,0 1.00642,0 m 1.00643,0 1.00783,0 m 1.00645,0 1.00641,0 m 1.00641,0 1.00643,0 m 1.00784,0 1.00643,0 m 1.00643,0 1.00641,0 m 1.00643,0 1.00784,0 m 1.00643,0 1.00643,0 m 1.00642,0 1.00642,0 m 1.00785,0 1.00641,0 m 1.00642,0 1.00644,0 m 1.00643,0 1.00783,0 m 1.00643,0 1.00641,0"
       id="path2469-7-1-9"
       style="fill:none;stroke:#000000;stroke-width:0.58611274;stroke-linecap:butt;stroke-linejoin:miter;stroke-miterlimit:10;stroke-opacity:1;stroke-dasharray:none"
       inkscape:connector-curvature="0" />
    <path
       d="m 368.28849,279.26151 0.98078,0 m 0.98078,0 0.98079,0 m 0.98078,0 0.98078,0 m 0.98078,0 0.98078,0 m 0.98078,0 0.98078,0 m 0.98023,0 0.98189,0 m 0.9805,0 0.9805,0 m 0.9805,0 0.98051,0 m 0.98189,0 0.98051,0 m 0.9805,0 0.9805,0 m 0.9805,0 0.98188,0 m 0.98053,0 0.98049,0 m 0.9805,0 0.98051,0 m 0.9819,0 0.98048,0 m 0.98052,0 0.98051,0 m 0.98048,0 0.9819,0 m 0.98051,0 0.98051,0 m 0.9805,0 0.98049,0 m 0.98189,0 0.98051,0 m 0.98051,0 0.9805,0 m 0.9805,0 0.98189,0 m 0.98051,0 0.9805,0 m 0.9805,0 0.98188,0 m 0.98053,0 0.98049,0 m 0.9805,0 0.9805,0 m 0.98189,0 0.9805,0 m 0.98052,0 0.98049,0 m 0.98051,0 0.98189,0 m 0.9805,0 0.98052,0 m 0.9805,0 0.98049,0 m 0.9819,0 0.98049,0 m 0.9805,0 0.98053,0 m 0.9805,0 0.98188,0 m 0.9805,0 0.9805,0"
       id="path2469-7-1-7"
       style="fill:none;stroke:#000000;stroke-width:0.57851613;stroke-linecap:butt;stroke-linejoin:miter;stroke-miterlimit:10;stroke-opacity:1;stroke-dasharray:none"
       inkscape:connector-curvature="0" />
    <path
       d="m 362.14736,282.91151 0.97559,0 m 0.9756,0 0.9756,0 m 0.9756,0 0.97559,0 m 0.9756,0 0.97559,0 m 0.9756,0 0.97559,0 m 0.97505,0 0.9767,0 m 0.97531,0 0.97532,0 m 0.97532,0 0.97532,0 m 0.9767,0 0.97533,0 m 0.97531,0 0.97532,0 m 0.97532,0 0.97669,0 m 0.97534,0 0.97531,0 m 0.97531,0 0.97533,0 m 0.97671,0 0.97529,0 m 0.97534,0 0.97533,0 m 0.97529,0 0.97671,0 m 0.97533,0 0.97532,0 m 0.97532,0 0.97531,0 m 0.9767,0 0.97532,0 m 0.97533,0 0.97531,0 m 0.97532,0 0.9767,0 m 0.97532,0 0.97532,0 m 0.97532,0 0.97669,0 m 0.97534,0 0.97531,0 m 0.97531,0 0.97532,0 m 0.9767,0 0.97532,0 m 0.97533,0 0.97531,0 m 0.97532,0 0.9767,0 m 0.97532,0 0.97533,0 m 0.97532,0 0.97531,0 m 0.97671,0 0.9753,0 m 0.97532,0 0.97534,0 m 0.97532,0 0.97669,0 m 0.97532,0 0.97531,0"
       id="path2469-7-1-6"
       style="fill:none;stroke:#000000;stroke-width:0.57698482;stroke-linecap:butt;stroke-linejoin:miter;stroke-miterlimit:10;stroke-opacity:1;stroke-dasharray:none"
       inkscape:connector-curvature="0" />
    <path
       d="m 360.41374,286.47151 0.97962,0 m 0.97964,0 0.97963,0 m 0.97963,0 0.97963,0 m 0.97963,0 0.97962,0 m 0.97963,0 0.97963,0 m 0.97908,0 0.98074,0 m 0.97934,0 0.97935,0 m 0.97935,0 0.97935,0 m 0.98074,0 0.97936,0 m 0.97934,0 0.97936,0 m 0.97935,0 0.98073,0 m 0.97937,0 0.97934,0 m 0.97934,0 0.97936,0 m 0.98075,0 0.97932,0 m 0.97938,0 0.97936,0 m 0.97932,0 0.98075,0 m 0.97936,0 0.97935,0 m 0.97935,0 0.97934,0 m 0.98074,0 0.97935,0 m 0.97937,0 0.97934,0 m 0.97935,0 0.98074,0 m 0.97935,0 0.97935,0 m 0.97935,0 0.98073,0 m 0.97937,0 0.97934,0 m 0.97935,0 0.97935,0 m 0.98074,0 0.97935,0 m 0.97936,0 0.97934,0 m 0.97935,0 0.98074,0 m 0.97935,0 0.97936,0 m 0.97936,0 0.97934,0 m 0.98075,0 0.97933,0 m 0.97935,0 0.97937,0 m 0.97935,0 0.98073,0 m 0.97935,0 0.97934,0"
       id="path2469-7-1-2"
       style="fill:none;stroke:#000000;stroke-width:0.5781762;stroke-linecap:butt;stroke-linejoin:miter;stroke-miterlimit:10;stroke-opacity:1;stroke-dasharray:none"
       inkscape:connector-curvature="0" />
    <path
       d="m 359.53643,290.16151 0.97559,0 m 0.9756,0 0.9756,0 m 0.9756,0 0.97559,0 m 0.9756,0 0.97559,0 m 0.9756,0 0.97559,0 m 0.97505,0 0.9767,0 m 0.97531,0 0.97532,0 m 0.97532,0 0.97532,0 m 0.9767,0 0.97533,0 m 0.97531,0 0.97532,0 m 0.97532,0 0.97669,0 m 0.97534,0 0.97531,0 m 0.97531,0 0.97533,0 m 0.97671,0 0.97529,0 m 0.97534,0 0.97533,0 m 0.97529,0 0.97671,0 m 0.97533,0 0.97532,0 m 0.97532,0 0.97531,0 m 0.9767,0 0.97532,0 m 0.97533,0 0.97531,0 m 0.97532,0 0.9767,0 m 0.97532,0 0.97532,0 m 0.97532,0 0.97669,0 m 0.97534,0 0.97531,0 m 0.97531,0 0.97532,0 m 0.9767,0 0.97532,0 m 0.97533,0 0.97531,0 m 0.97532,0 0.9767,0 m 0.97532,0 0.97533,0 m 0.97532,0 0.97531,0 m 0.97671,0 0.9753,0 m 0.97532,0 0.97534,0 m 0.97532,0 0.97669,0 m 0.97532,0 0.97531,0"
       id="path2469-7-1-73"
       style="fill:none;stroke:#000000;stroke-width:0.57698482;stroke-linecap:butt;stroke-linejoin:miter;stroke-miterlimit:10;stroke-opacity:1;stroke-dasharray:none"
       inkscape:connector-curvature="0" />
    <path
       d="m 357.01419,293.61151 0.97559,0 m 0.9756,0 0.9756,0 m 0.9756,0 0.97559,0 m 0.9756,0 0.97559,0 m 0.9756,0 0.97559,0 m 0.97505,0 0.9767,0 m 0.97531,0 0.97532,0 m 0.97532,0 0.97532,0 m 0.9767,0 0.97533,0 m 0.97531,0 0.97532,0 m 0.97532,0 0.97669,0 m 0.97534,0 0.97531,0 m 0.97531,0 0.97533,0 m 0.97671,0 0.97529,0 m 0.97534,0 0.97533,0 m 0.97529,0 0.97671,0 m 0.97533,0 0.97532,0 m 0.97532,0 0.97531,0 m 0.9767,0 0.97532,0 m 0.97533,0 0.97531,0 m 0.97532,0 0.9767,0 m 0.97532,0 0.97532,0 m 0.97532,0 0.97669,0 m 0.97534,0 0.97531,0 m 0.97531,0 0.97532,0 m 0.9767,0 0.97532,0 m 0.97533,0 0.97531,0 m 0.97532,0 0.9767,0 m 0.97532,0 0.97533,0 m 0.97532,0 0.97531,0 m 0.97671,0 0.9753,0 m 0.97532,0 0.97534,0 m 0.97532,0 0.97669,0 m 0.97532,0 0.97531,0"
       id="path2469-7-1-8"
       style="fill:none;stroke:#000000;stroke-width:0.57698482;stroke-linecap:butt;stroke-linejoin:miter;stroke-miterlimit:10;stroke-opacity:1;stroke-dasharray:none"
       inkscape:connector-curvature="0" />
    <path
       d="m 418.66049,268.1009 -0.26005,29.54865"
       id="path2485-2"
       style="fill:none;stroke:#000000;stroke-width:0.70088726;stroke-linecap:butt;stroke-linejoin:miter;stroke-miterlimit:10;stroke-opacity:1;stroke-dasharray:none"
       inkscape:connector-curvature="0" />
    <path
       d="m 150.04142,30.348821 0,-3.436354"
       id="path3542-7"
       style="fill:none;stroke:#000000;stroke-width:0.46725824px;stroke-linecap:butt;stroke-linejoin:miter;stroke-opacity:1;display:inline"
       inkscape:connector-curvature="0" />
    <path
       d="m 132.63858,19.289427 -0.248,-3.427392"
       id="path3542-7-3"
       style="fill:none;stroke:#000000;stroke-width:0.46725824px;stroke-linecap:butt;stroke-linejoin:miter;stroke-opacity:1;display:inline"
       inkscape:connector-curvature="0" />
    <path
       d="m 126.89003,15.667339 -0.43546,-3.40865"
       id="path3542-7-3-9"
       style="fill:none;stroke:#000000;stroke-width:0.46725824px;stroke-linecap:butt;stroke-linejoin:miter;stroke-opacity:1;display:inline"
       inkscape:connector-curvature="0" />
    <path
       d="m 138.35686,23.051133 0,-3.436354"
       id="path3542-7-3-4"
       style="fill:none;stroke:#000000;stroke-width:0.46725824px;stroke-linecap:butt;stroke-linejoin:miter;stroke-opacity:1;display:inline"
       inkscape:connector-curvature="0" />
    <path
       d="m 121.09032,12.554422 -0.5206,-3.3966888"
       id="path3542-7-3-3"
       style="fill:none;stroke:#000000;stroke-width:0.46725824px;stroke-linecap:butt;stroke-linejoin:miter;stroke-opacity:1;display:inline"
       inkscape:connector-curvature="0" />
    <path
       d="M 115.30784,10.087524 114.66762,6.7113364"
       id="path3542-7-3-7"
       style="fill:none;stroke:#000000;stroke-width:0.46725824px;stroke-linecap:butt;stroke-linejoin:miter;stroke-opacity:1;display:inline"
       inkscape:connector-curvature="0" />
    <path
       d="m 109.71261,7.564657 -1.1343,-3.2437482"
       id="path3542-7-3-34"
       style="fill:none;stroke:#000000;stroke-width:0.46725824px;stroke-linecap:butt;stroke-linejoin:miter;stroke-opacity:1;display:inline"
       inkscape:connector-curvature="0" />
  </g>
</svg>
